# xmcd
#
# Track frame offsets:
#	150
#	18236
#	32995
#	48847
#	66199
#	86922
#	104223
#	122754
#	143143
#	161229
#	175988
#	191840
#	209192
#	229915
#	247216
#	265747
#	297461
#
# Disc length: 4458 seconds
#
# Revision: 0
# Processed by: cddbd v1.5.2PL0 Copyright (c) Steve Scherf et al.
# Submitted via: audiograbber 1.83.01
#
DISCID=15116811
DTITLE=All Star Karaoke - ASK-821
DYEAR=2009
DGENRE=Karaoke
TTITLE0=Carrie Underwood - Cowboy Casanova
TTITLE1=Jake Owen - Eight Second Ride
TTITLE2=Darius Rucker - History In The Making
TTITLE3=Lady Antebellum - I Run To You
TTITLE4=Jamey Johnson - In Color
TTITLE5=Billy Currington - People Are Crazy
TTITLE6=Tim McGraw - Southern Voice
TTITLE7=Brad Paisley - Then
TTITLE8=Carrie Underwood - Cowboy Casanova (vocal)
TTITLE9=Jake Owen - Eight Second Ride (vocal)
TTITLE10=Darius Rucker - History In The Making (vocal)
TTITLE11=Lady Antebellum - I Run To You (vocal)
TTITLE12=Jamey Johnson - In Color (vocal)
TTITLE13=Billy Currington - People Are Crazy (vocal)
TTITLE14=Tim McGraw - Southern Voice (vocal)
TTITLE15=Brad Paisley - Then (vocal)
TTITLE16=ASK821 - 17 - Data - Data
EXTD=
EXTT0=
EXTT1=
EXTT2=
EXTT3=
EXTT4=
EXTT5=
EXTT6=
EXTT7=
EXTT8=
EXTT9=
EXTT10=
EXTT11=
EXTT12=
EXTT13=
EXTT14=
EXTT15=
EXTT16=
PLAYORDER=
